<svg width="358" height="334" viewBox="0 0 358 334" fill="none" xmlns="http://www.w3.org/2000/svg">
<g clip-path="url(#clip0_39_52)">
<path d="M184.169 284.74C170.781 284.74 158.396 294.479 158.396 309.298C158.396 324.117 170.781 333.856 184.169 333.856C197.557 333.856 209.941 324.117 209.941 309.298C209.941 294.479 197.557 284.74 184.169 284.74ZM184.169 321.323C177.558 321.323 172.203 315.903 172.203 309.213C172.203 302.523 177.558 297.104 184.169 297.104C190.779 297.104 196.134 302.523 196.134 309.213C196.134 315.903 190.779 321.323 184.169 321.323ZM80.2428 285.841H94.8025V332.67H80.2428V285.841ZM96.1413 271.36C96.1413 275.933 92.2085 279.49 87.5226 279.49C82.8368 279.49 78.904 275.933 78.904 271.36C78.904 266.788 82.8368 263.231 87.5226 263.231C92.2085 263.316 96.1413 266.788 96.1413 271.36ZM152.455 309.298V332.67H137.896V310.399C137.896 302.523 134.883 297.951 128.357 297.951C121.83 297.951 118.818 302.523 118.818 310.399V332.67H104.258V309.298C104.258 294.479 113.63 284.74 128.357 284.74C143.084 284.74 152.455 294.479 152.455 309.298ZM293.952 308.875V332.67H279.392V308.875C279.392 301.761 276.464 297.951 270.774 297.951C265.084 297.951 262.155 301.761 262.155 308.875V332.67H247.595V308.875C247.595 301.761 244.667 297.951 238.977 297.951C233.287 297.951 230.358 301.761 230.358 308.875V332.67H215.966V308.875C215.966 294.055 225.923 284.74 239.144 284.74C245.922 284.74 251.361 287.196 255.043 291.599C258.724 287.196 264.163 284.74 270.941 284.74C283.995 284.74 293.952 294.055 293.952 308.875ZM325.749 284.74C312.361 284.74 299.977 294.479 299.977 309.298C299.977 324.117 312.361 333.856 325.749 333.856C339.137 333.856 351.521 324.117 351.521 309.298C351.521 294.479 339.137 284.74 325.749 284.74ZM325.749 321.323C319.139 321.323 313.783 315.903 313.783 309.213C313.783 302.523 319.139 297.104 325.749 297.104C332.359 297.104 337.715 302.523 337.715 309.213C337.715 315.903 332.359 321.323 325.749 321.323ZM47.6927 284.74C42.6722 284.74 38.4883 286.01 35.225 288.466V263.908H21V306.673C21 323.863 32.631 333.856 46.5213 333.856C60.4115 333.856 72.6283 324.117 72.6283 309.298C72.7119 294.479 61.0809 284.74 47.6927 284.74ZM47.0233 321.323C40.4129 321.323 35.0576 315.903 35.0576 309.213C35.0576 302.523 40.4129 297.104 47.0233 297.104C53.6338 297.104 58.989 302.523 58.989 309.213C58.989 315.903 53.6338 321.323 47.0233 321.323Z" fill="#FFDC3C"/>
<path d="M199.46 3.834C186.221 -4.05861 169.291 0.625184 161.648 14.2955L120.135 88.5337C112.491 102.204 117.027 119.685 130.266 127.577C143.506 135.47 160.435 130.786 168.079 117.116L209.592 42.8774C217.236 29.2069 212.699 11.7266 199.46 3.834Z" fill="#FFDC3C"/>
<path d="M241.029 78.0721C227.789 70.1795 210.86 74.8633 203.216 88.5336L161.703 162.772C154.059 176.442 158.595 193.923 171.835 201.815C185.074 209.708 202.004 205.024 209.647 191.354L251.16 117.115C258.804 103.445 254.268 85.9647 241.029 78.0721Z" fill="#FFDC3C"/>
</g>
<defs>
<clipPath id="clip0_39_52">
<rect width="358" height="334" fill="white"/>
</clipPath>
</defs>
</svg>
