<svg width="176" height="34" viewBox="0 0 176 34" fill="none" xmlns="http://www.w3.org/2000/svg">
<path d="M105.232 9.99978C99.5723 9.99978 94.337 14.1166 94.337 20.3813C94.337 26.646 99.5723 30.7629 105.232 30.7629C110.892 30.7629 116.127 26.646 116.127 20.3813C116.127 14.1166 110.892 9.99978 105.232 9.99978ZM105.232 25.4647C102.437 25.4647 100.174 23.1736 100.174 20.3455C100.174 17.5174 102.437 15.2263 105.232 15.2263C108.026 15.2263 110.29 17.5174 110.29 20.3455C110.29 23.1736 108.026 25.4647 105.232 25.4647ZM61.2984 10.4652H67.4534V30.2617H61.2984V10.4652ZM68.0193 4.34363C68.0193 6.27674 66.3568 7.78028 64.3759 7.78028C62.395 7.78028 60.7324 6.27674 60.7324 4.34363C60.7324 2.41051 62.395 0.906982 64.3759 0.906982C66.3568 0.942781 68.0193 2.41051 68.0193 4.34363ZM91.8255 20.3813V30.2617H85.6706V20.8467C85.6706 17.5174 84.3971 15.5843 81.638 15.5843C78.8789 15.5843 77.6055 17.5174 77.6055 20.8467V30.2617H71.4505V20.3813C71.4505 14.1166 75.4123 9.99978 81.638 9.99978C87.8637 9.99978 91.8255 14.1166 91.8255 20.3813ZM151.642 20.2023V30.2617H145.487V20.2023C145.487 17.1953 144.249 15.5843 141.843 15.5843C139.438 15.5843 138.2 17.1953 138.2 20.2023V30.2617H132.045V20.2023C132.045 17.1953 130.807 15.5843 128.401 15.5843C125.996 15.5843 124.758 17.1953 124.758 20.2023V30.2617H118.674V20.2023C118.674 13.9376 122.883 9.99978 128.472 9.99978C131.337 9.99978 133.637 11.0379 135.193 12.8994C136.75 11.0379 139.049 9.99978 141.914 9.99978C147.432 9.99978 151.642 13.9376 151.642 20.2023ZM165.084 9.99978C159.424 9.99978 154.189 14.1166 154.189 20.3813C154.189 26.646 159.424 30.7629 165.084 30.7629C170.743 30.7629 175.978 26.646 175.978 20.3813C175.978 14.1166 170.743 9.99978 165.084 9.99978ZM165.084 25.4647C162.289 25.4647 160.025 23.1736 160.025 20.3455C160.025 17.5174 162.289 15.2263 165.084 15.2263C167.878 15.2263 170.142 17.5174 170.142 20.3455C170.142 23.1736 167.878 25.4647 165.084 25.4647ZM47.5382 9.99978C45.4158 9.99978 43.6472 10.5368 42.2676 11.5749V1.19337H36.2542V19.2716C36.2542 26.5386 41.171 30.7629 47.043 30.7629C52.9149 30.7629 58.0794 26.646 58.0794 20.3813C58.1148 14.1166 53.1979 9.99978 47.5382 9.99978ZM47.2552 25.4647C44.4607 25.4647 42.1969 23.1736 42.1969 20.3455C42.1969 17.5174 44.4607 15.2263 47.2552 15.2263C50.0497 15.2263 52.3136 17.5174 52.3136 20.3455C52.3136 23.1736 50.0497 25.4647 47.2552 25.4647Z" fill="#302D21"/>
<path d="M13.5954 1.52148C11.4278 0.254976 8.65606 1.00657 7.40459 3.20022L0.607931 15.113C-0.643545 17.3067 0.09913 20.1117 2.26674 21.3782C4.43434 22.6447 7.20605 21.8931 8.45751 19.6995L15.2542 7.78667C16.5056 5.59301 15.763 2.78799 13.5954 1.52148Z" fill="#302D21"/>
<path d="M20.4011 13.4343C18.2335 12.1678 15.4618 12.9194 14.2103 15.113L7.41366 27.0258C6.16219 29.2195 6.90486 32.0245 9.07247 33.291C11.2401 34.5575 14.0118 33.8059 15.2632 31.6123L22.0599 19.6995C23.3114 17.5058 22.5687 14.7008 20.4011 13.4343Z" fill="#302D21"/>
</svg>
