<svg width="24" height="25" viewBox="0 0 24 25" fill="none" xmlns="http://www.w3.org/2000/svg">
<path d="M21 12.6729C21 7.68389 16.97 3.63989 12 3.63989C7.03 3.63989 3 7.68389 3 12.6729C2.99775 14.686 3.66825 16.6421 4.90499 18.2305C6.14173 19.8189 7.87378 20.9485 9.826 21.4399V15.4329H7.97V12.6729H9.826V11.4829C9.826 8.40889 11.212 6.98389 14.219 6.98389C14.789 6.98389 15.774 7.09589 16.176 7.20789V9.71089C15.83 9.68388 15.483 9.67254 15.136 9.67689C13.661 9.67689 13.09 10.2379 13.09 11.6969V12.6729H16.03L15.525 15.4329H13.09V21.6399C17.547 21.0999 21 17.2909 21 12.6729Z" fill="white"/>
</svg>
