<svg width="55" height="65" viewBox="0 0 55 65" fill="none" xmlns="http://www.w3.org/2000/svg">
<path d="M2.98647 11.5172C2.43341 12.1733 2.15368 13.0169 2.20512 13.8735V51.1252C2.1537 51.9825 2.43395 52.8266 2.98783 53.4828L3.10699 53.6007L24.1887 32.7519V32.2644L3.10699 11.3994L2.98647 11.5172Z" fill="url(#paint0_linear_28_2622)"/>
<path d="M31.164 39.7085L24.1887 32.7521V32.2646L31.164 25.292L31.3171 25.3773L39.6723 30.0763C42.0542 31.4061 42.0542 33.5944 39.6723 34.9418L31.3523 39.6231L31.164 39.7085Z" fill="url(#paint1_linear_28_2622)"/>
<path d="M31.3684 39.6067L24.1886 32.5L2.98645 53.4828C3.98853 54.3549 5.47405 54.3969 6.52489 53.5844L31.3833 39.6067" fill="url(#paint2_linear_28_2622)"/>
<path d="M31.3684 25.3932L6.51001 11.4155C5.99901 11.0211 5.36723 10.8156 4.72197 10.8342C4.07671 10.8527 3.45775 11.094 2.97021 11.5171L24.1887 32.4999L31.3684 25.3932Z" fill="url(#paint3_linear_28_2622)"/>
<path opacity="0.2" d="M31.1639 39.4551L6.50863 53.3488C6.01586 53.7125 5.41954 53.9087 4.80712 53.9087C4.19469 53.9087 3.59837 53.7125 3.10561 53.3488L2.98779 53.4666L3.10561 53.5845C4.11311 54.336 5.50248 54.336 6.50863 53.5845L31.3698 39.6067L31.1666 39.4551H31.1639Z" fill="black"/>
<path opacity="0.12" fill-rule="evenodd" clip-rule="evenodd" d="M31.164 39.455L39.6722 34.6883C40.1044 34.4782 40.4825 34.1716 40.7774 33.7921C41.0722 33.4127 41.2761 32.9706 41.373 32.5C41.3285 33.0182 41.1478 33.5153 40.849 33.941C40.5503 34.3667 40.1443 34.7059 39.6722 34.924L31.317 39.6067L31.164 39.455ZM2.20106 51.2173C2.22815 51.958 2.50304 52.673 2.98648 53.2472L3.107 53.3826L2.98783 53.5004C2.45053 52.8638 2.16998 52.0497 2.20106 51.2173ZM2.20106 51.2173C2.20106 51.1929 2.20242 51.1672 2.20512 51.1428V50.8896C2.1984 50.9987 2.19705 51.1081 2.20106 51.2173Z" fill="black"/>
<path opacity="0.25" d="M6.50865 11.6526L39.6722 30.3117C40.1045 30.5217 40.4827 30.8282 40.7776 31.2077C41.0725 31.5871 41.2762 32.0293 41.373 32.5C41.3285 31.9819 41.1477 31.4847 40.849 31.059C40.5503 30.6333 40.1443 30.2942 39.6722 30.0761L6.50729 11.4157C4.12667 10.0859 2.1875 11.199 2.1875 13.8938V14.1457C2.23896 11.4346 4.14427 10.3228 6.50865 11.654V11.6526Z" fill="white"/>
<defs>
<linearGradient id="paint0_linear_28_2622" x1="14.9546" y1="-13.91" x2="-18.756" y2="-4.85194" gradientUnits="userSpaceOnUse">
<stop stop-color="#00A0FF"/>
<stop offset="0.01" stop-color="#00A1FF"/>
<stop offset="0.26" stop-color="#00BEFF"/>
<stop offset="0.51" stop-color="#00D2FF"/>
<stop offset="0.76" stop-color="#00DFFF"/>
<stop offset="1" stop-color="#00E3FF"/>
</linearGradient>
<linearGradient id="paint1_linear_28_2622" x1="42.7855" y1="15.3226" x2="1.62559" y2="15.3226" gradientUnits="userSpaceOnUse">
<stop stop-color="#FFE000"/>
<stop offset="0.41" stop-color="#FFBD00"/>
<stop offset="0.78" stop-color="#FFA500"/>
<stop offset="1" stop-color="#FF9C00"/>
</linearGradient>
<linearGradient id="paint2_linear_28_2622" x1="2.36353" y1="21.6003" x2="-24.3393" y2="66.9866" gradientUnits="userSpaceOnUse">
<stop stop-color="#FF3A44"/>
<stop offset="1" stop-color="#C31162"/>
</linearGradient>
<linearGradient id="paint3_linear_28_2622" x1="-13.5682" y1="5.71717" x2="-1.64885" y2="25.9836" gradientUnits="userSpaceOnUse">
<stop stop-color="#32A071"/>
<stop offset="0.07" stop-color="#2DA771"/>
<stop offset="0.48" stop-color="#15CF74"/>
<stop offset="0.8" stop-color="#06E775"/>
<stop offset="1" stop-color="#00F076"/>
</linearGradient>
</defs>
</svg>
