<svg width="24" height="25" viewBox="0 0 24 25" fill="none" xmlns="http://www.w3.org/2000/svg">
<path d="M8.497 12.64C8.49647 13.0846 8.58354 13.5249 8.75323 13.9359C8.92292 14.3468 9.1719 14.7203 9.48597 15.0351C9.80003 15.3498 10.173 15.5995 10.5836 15.7701C10.9942 15.9406 11.4344 16.0286 11.879 16.029C12.3236 16.0286 12.7638 15.9406 13.1744 15.7701C13.585 15.5995 13.958 15.3498 14.272 15.0351C14.5861 14.7203 14.8351 14.3468 15.0048 13.9359C15.1745 13.5249 15.2615 13.0846 15.261 12.64C15.2615 12.1954 15.1745 11.755 15.0048 11.3441C14.8351 10.9331 14.5861 10.5596 14.272 10.2449C13.958 9.93018 13.585 9.68043 13.1744 9.50989C12.7638 9.33935 12.3236 9.25137 11.879 9.25098C11.4343 9.25137 10.994 9.33938 10.5834 9.50998C10.1727 9.68058 9.79969 9.93043 9.48561 10.2452C9.17154 10.5601 8.92257 10.9337 8.75294 11.3448C8.58331 11.7558 8.49634 12.1963 8.497 12.641V12.64Z" fill="white"/>
<path fill-rule="evenodd" clip-rule="evenodd" d="M16.776 22.551C19.711 22.445 21.836 20.268 21.926 17.327C22.024 14.204 22.024 11.073 21.926 7.95001C21.836 5.00901 19.71 2.831 16.776 2.726C13.5934 2.61151 10.4076 2.61151 7.225 2.726C4.29 2.83 2.165 5.00901 2.073 7.95001C1.97545 11.0749 1.97545 14.2021 2.073 17.327C2.165 20.268 4.289 22.445 7.224 22.551C8.776 22.607 10.563 22.637 12.117 22.64C13.67 22.637 15.224 22.607 16.776 22.551ZM6.72 12.641C6.71921 11.9629 6.85201 11.2913 7.11081 10.6645C7.36961 10.0378 7.74934 9.4681 8.22832 8.9881C8.7073 8.5081 9.27614 8.12716 9.90235 7.86702C10.5286 7.60689 11.1999 7.47266 11.878 7.472C12.5561 7.47253 13.2275 7.60663 13.8537 7.86664C14.48 8.12665 15.0489 8.50749 15.528 8.98739C16.007 9.4673 16.3869 10.0369 16.6458 10.6636C16.9047 11.2903 17.0377 11.9619 17.037 12.64C17.0377 13.318 16.9048 13.9895 16.6459 14.6162C16.387 15.2428 16.0073 15.8124 15.5283 16.2923C15.0494 16.7722 14.4806 17.153 13.8544 17.4131C13.2283 17.6732 12.557 17.8073 11.879 17.808C11.201 17.8073 10.5297 17.6732 9.90359 17.4131C9.27743 17.153 8.70864 16.7722 8.22967 16.2923C7.75071 15.8124 7.37095 15.2428 7.1121 14.6162C6.85324 13.9895 6.72034 13.318 6.721 12.64L6.72 12.641ZM17.338 8.46601C18.016 8.46601 18.565 7.91601 18.565 7.23601C18.5646 6.99317 18.4922 6.75591 18.357 6.55421C18.2218 6.3525 18.0298 6.19542 17.8053 6.10281C17.5808 6.0102 17.3339 5.98623 17.0958 6.03392C16.8577 6.08161 16.6391 6.19882 16.4676 6.37074C16.2961 6.54266 16.1794 6.76156 16.1323 6.99978C16.0852 7.238 16.1098 7.48484 16.203 7.70909C16.2961 7.93335 16.4537 8.12495 16.6557 8.25967C16.8577 8.3944 17.0952 8.4662 17.338 8.46601Z" fill="white"/>
</svg>
