<svg width="125" height="24" viewBox="0 0 125 24" fill="none" xmlns="http://www.w3.org/2000/svg">
<g clip-path="url(#clip0_28_2634)">
<g clip-path="url(#clip1_28_2634)">
<g clip-path="url(#clip2_28_2634)">
<mask id="mask0_28_2634" style="mask-type:luminance" maskUnits="userSpaceOnUse" x="25" y="0" width="100" height="22">
<path d="M25.4637 0.145996H124.957V21.0927H25.4637V0.145996Z" fill="white"/>
</mask>
<g mask="url(#mask0_28_2634)">
<path fill-rule="evenodd" clip-rule="evenodd" d="M33.2987 17.3922C32.3461 17.3929 31.4322 17.0152 30.758 16.3421C30.0838 15.6691 29.7046 14.7558 29.7037 13.8032C29.7046 12.8505 30.0838 11.9373 30.758 11.2642C31.4322 10.5912 32.3461 10.2134 33.2987 10.2141C34.251 10.2137 35.1646 10.5914 35.8385 11.2642C36.5125 11.9371 36.8917 12.85 36.8928 13.8023C36.8926 14.274 36.7994 14.7411 36.6187 15.1768C36.4379 15.6125 36.1731 16.0084 35.8394 16.3418C35.5056 16.6751 35.1095 16.9395 34.6735 17.1197C34.2376 17.3 33.7704 17.3926 33.2987 17.3922ZM33.4946 6.51275C31.9917 6.51275 30.727 6.89859 29.7324 7.61117V0.324985H25.4637V13.018C25.4637 18.1175 28.9759 21.0936 33.1577 21.0936C37.3411 21.0936 41.0214 18.2061 41.0214 13.8032C41.0214 9.39937 37.5277 6.51275 33.4946 6.51275ZM117.205 17.3922C116.734 17.3926 116.267 17.3 115.831 17.1198C115.395 16.9396 114.999 16.6753 114.665 16.3421C114.331 16.0088 114.067 15.613 113.886 15.1774C113.705 14.7418 113.612 14.2748 113.611 13.8032C113.612 13.3314 113.705 12.8644 113.886 12.4287C114.067 11.993 114.332 11.5973 114.665 11.264C114.999 10.9307 115.395 10.6664 115.831 10.4863C116.267 10.3061 116.735 10.2137 117.206 10.2141C118.159 10.2134 119.072 10.5911 119.746 11.264C120.42 11.9369 120.8 12.8499 120.8 13.8023C120.8 14.274 120.707 14.7411 120.526 15.1768C120.346 15.6125 120.081 16.0084 119.747 16.3418C119.413 16.6751 119.017 16.9395 118.581 17.1197C118.145 17.3 117.677 17.3926 117.205 17.3922ZM117.205 6.51275C113.174 6.51275 109.455 9.40021 109.455 13.8032C109.455 18.2061 113.174 21.0936 117.205 21.0936C121.239 21.0936 124.957 18.2061 124.957 13.8032C124.957 9.39937 121.238 6.51275 117.205 6.51275ZM107.632 13.6909V20.7575H103.251V13.6909C103.251 11.5768 102.371 10.4387 100.668 10.4387C98.9647 10.4387 98.0841 11.5768 98.0841 13.6909V20.7575H93.7031V13.6909C93.7031 11.5768 92.8234 10.4387 91.1196 10.4387C89.4167 10.4387 88.5361 11.5768 88.5361 13.6909V20.7575H84.1559V13.6909C84.1559 9.28708 87.1599 6.51275 91.1204 6.51275C93.1543 6.51275 94.7863 7.24644 95.894 8.55424C97.0026 7.24559 98.6346 6.51275 100.668 6.51275C104.627 6.51275 107.632 9.28708 107.632 13.6909ZM65.032 13.8032V20.7567H60.651V14.1392C60.651 11.803 59.7417 10.4387 57.7864 10.4387C55.831 10.4387 54.9225 11.803 54.9225 14.1392V20.7567H50.5407V13.804C50.5407 9.40021 53.3657 6.5136 57.7864 6.5136C62.207 6.5136 65.032 9.40021 65.032 13.8032ZM48.088 2.54883C48.088 3.90813 46.8925 4.95251 45.4876 4.95251C44.0819 4.95251 42.8856 3.90813 42.8856 2.54968C42.8856 1.19122 44.0819 0.145996 45.4876 0.145996C46.8934 0.145996 48.0889 1.19122 48.0889 2.54968L48.088 2.54883ZM43.2967 20.7567H47.6777V6.84878H43.2959L43.2967 20.7567ZM74.5817 17.3922C74.1101 17.3926 73.643 17.3 73.2071 17.1198C72.7712 16.9396 72.3751 16.6753 72.0413 16.3421C71.7076 16.0088 71.4428 15.613 71.262 15.1774C71.0812 14.7418 70.9879 14.2748 70.9876 13.8032C70.9879 13.3315 71.0812 12.8645 71.262 12.4289C71.4428 11.9933 71.7076 11.5975 72.0413 11.2643C72.3751 10.931 72.7712 10.6667 73.2071 10.4865C73.643 10.3063 74.1101 10.2138 74.5817 10.2141C75.0534 10.2137 75.5205 10.3061 75.9564 10.4862C76.3923 10.6663 76.7885 10.9305 77.1224 11.2637C77.4562 11.5969 77.7211 11.9925 77.902 12.4281C78.0829 12.8637 78.1763 13.3307 78.1767 13.8023C78.1765 14.2741 78.0833 14.7412 77.9025 15.177C77.7217 15.6128 77.4568 16.0087 77.123 16.3421C76.7891 16.6754 76.3928 16.9398 75.9568 17.12C75.5208 17.3001 75.0535 17.3927 74.5817 17.3922ZM74.5817 6.51275C70.5494 6.51275 66.8312 9.40021 66.8312 13.8032C66.8312 18.2061 70.5494 21.0936 74.5817 21.0936C78.614 21.0936 82.3323 18.2061 82.3323 13.8032C82.3323 9.39937 78.614 6.51275 74.5817 6.51275Z" fill="white"/>
</g>
<mask id="mask1_28_2634" style="mask-type:luminance" maskUnits="userSpaceOnUse" x="0" y="0" width="17" height="24">
<path d="M0.0228577 0.145996H16.1436V23.5361H0.0228577V0.145996Z" fill="white"/>
</mask>
<g mask="url(#mask1_28_2634)">
<path fill-rule="evenodd" clip-rule="evenodd" d="M6.54745 23.1251C7.25269 23.5319 8.09055 23.6421 8.877 23.4316C9.66345 23.221 10.3342 22.7069 10.7419 22.0022L15.7316 13.3711C15.9331 13.0224 16.064 12.6375 16.1166 12.2382C16.1692 11.8389 16.1425 11.4332 16.0381 11.0442C15.9338 10.6553 15.7537 10.2907 15.5083 9.97142C15.2629 9.65212 14.9569 9.38436 14.6078 9.18345C13.9025 8.77691 13.0648 8.66682 12.2784 8.87735C11.492 9.08787 10.8213 9.60181 10.4134 10.3063L5.42371 18.9375C5.22215 19.2861 5.09133 19.6711 5.03873 20.0704C4.98613 20.4697 5.01278 20.8754 5.11716 21.2643C5.22153 21.6533 5.40159 22.0179 5.64701 22.3372C5.89244 22.6565 6.19842 22.9242 6.54745 23.1251ZM0.434821 10.3114L5.42455 1.68028C5.83239 0.976198 6.50281 0.462591 7.28878 0.25209C8.07475 0.0415899 8.91213 0.151378 9.61727 0.55738C9.9663 0.758291 10.2723 1.02606 10.5177 1.34535C10.7631 1.66465 10.9432 2.02921 11.0476 2.41817C11.1519 2.80713 11.1786 3.21286 11.126 3.61213C11.0734 4.0114 10.9426 4.39638 10.741 4.74504L5.75129 13.377C5.34344 14.0816 4.67272 14.5955 3.88634 14.806C3.09996 15.0165 2.26217 14.9065 1.55688 14.4999C1.20792 14.2989 0.902019 14.0311 0.656677 13.7118C0.411334 13.3925 0.231366 13.0279 0.127069 12.6389C0.0227727 12.25 -0.0038045 11.8443 0.0488582 11.445C0.101521 11.0458 0.23239 10.6609 0.433977 10.3123" fill="#FFDC3C"/>
</g>
</g>
</g>
</g>
<defs>
<clipPath id="clip0_28_2634">
<rect width="125" height="23.64" fill="white"/>
</clipPath>
<clipPath id="clip1_28_2634">
<rect width="125" height="23.64" fill="white"/>
</clipPath>
<clipPath id="clip2_28_2634">
<rect width="124.954" height="23.64" fill="white" transform="translate(0.0228577)"/>
</clipPath>
</defs>
</svg>
