<svg width="14" height="14" viewBox="0 0 14 14" fill="none" xmlns="http://www.w3.org/2000/svg">
<path d="M8.58669 3.66349C8.50941 3.58055 8.46733 3.47086 8.46933 3.35752C8.47133 3.24417 8.51725 3.13603 8.59741 3.05588C8.67756 2.97572 8.78571 2.9298 8.89905 2.9278C9.01239 2.9258 9.12208 2.96787 9.20502 3.04515L12.1217 5.96182C12.2036 6.04385 12.2496 6.15505 12.2496 6.27099C12.2496 6.38693 12.2036 6.49812 12.1217 6.58015L9.20502 9.49682C9.12208 9.5741 9.01239 9.61617 8.89905 9.61417C8.78571 9.61217 8.67756 9.56626 8.59741 9.4861C8.51725 9.40594 8.47133 9.2978 8.46933 9.18446C8.46733 9.07112 8.50941 8.96142 8.58669 8.87849L10.7567 6.70849H6.27085C5.30392 6.70849 4.37658 7.0926 3.69286 7.77633C3.00913 8.46005 2.62502 9.38739 2.62502 10.3543V10.646C2.62502 10.762 2.57893 10.8733 2.49688 10.9553C2.41483 11.0374 2.30355 11.0835 2.18752 11.0835C2.07149 11.0835 1.96021 11.0374 1.87816 10.9553C1.79611 10.8733 1.75002 10.762 1.75002 10.646V10.3543C1.75002 9.15532 2.22632 8.00543 3.07414 7.15761C3.92196 6.30979 5.07185 5.83349 6.27085 5.83349H10.7567L8.58669 3.66349Z" fill="black"/>
</svg>
