<svg width="24" height="25" viewBox="0 0 24 25" fill="none" xmlns="http://www.w3.org/2000/svg">
<path d="M19.998 5.76481C19.998 5.81881 19.995 5.87481 19.988 5.93181L17.904 19.5618C17.8789 19.7355 17.8185 19.9023 17.7267 20.0519C17.6349 20.2015 17.5135 20.3308 17.37 20.4318C16.964 20.7128 16.44 20.7078 16.04 20.4218L10.178 16.2318C9.754 15.9288 9.702 15.2848 10.073 14.9108L14.79 10.1398C14.8442 10.0841 14.879 10.0123 14.8893 9.93524C14.8996 9.85815 14.8847 9.77981 14.847 9.71181C14.8266 9.67151 14.7978 9.63606 14.7626 9.60783C14.7273 9.5796 14.6864 9.55926 14.6426 9.54817C14.5988 9.53708 14.5532 9.53551 14.5088 9.54355C14.4643 9.5516 14.4221 9.56908 14.385 9.59481L7.895 13.9148C7.50716 14.1907 7.05959 14.371 6.58881 14.4411C6.11803 14.5111 5.63736 14.4689 5.186 14.3178L2.478 13.4138C2.33611 13.3627 2.21374 13.2685 2.12803 13.1445C2.04232 13.0204 1.99755 12.8726 2 12.7218C2 12.5758 2.04 12.4388 2.114 12.3218C2.18553 12.2057 2.28995 12.1135 2.414 12.0568L18.538 4.72781C18.7411 4.6373 18.9685 4.61637 19.1847 4.66826C19.401 4.72016 19.5941 4.84197 19.734 5.01481C19.907 5.21981 20 5.48581 20 5.75981L19.998 5.76481Z" fill="white"/>
</svg>
