<svg width="24" height="25" viewBox="0 0 24 25" fill="none" xmlns="http://www.w3.org/2000/svg">
<path fill-rule="evenodd" clip-rule="evenodd" d="M18.96 5.07784C20.834 5.07784 22.353 6.52584 22.353 8.31184V16.9818C22.353 18.7678 20.834 20.2158 18.959 20.2158C12.678 20.4938 11.192 20.4938 5.039 20.2158C3.166 20.2158 1.646 18.7678 1.646 16.9818V8.31184C1.646 6.52584 3.166 5.07784 5.039 5.07784C11.954 4.80684 12.176 4.71184 18.96 5.07784ZM10.31 9.36184C10.2265 9.31174 10.1312 9.2847 10.0339 9.28348C9.9365 9.28227 9.84057 9.30692 9.75585 9.35492C9.67114 9.40292 9.60069 9.47255 9.5517 9.55669C9.5027 9.64083 9.47693 9.73647 9.477 9.83384V15.4598C9.4771 15.5571 9.50301 15.6526 9.55208 15.7366C9.60114 15.8206 9.67161 15.8901 9.75629 15.938C9.84097 15.9859 9.93684 16.0104 10.0341 16.0092C10.1314 16.0079 10.2266 15.9809 10.31 15.9308L14.998 13.1188C15.0796 13.07 15.1472 13.0009 15.1941 12.9181C15.241 12.8354 15.2657 12.7419 15.2657 12.6468C15.2657 12.5517 15.241 12.4583 15.1941 12.3755C15.1472 12.2928 15.0796 12.2237 14.998 12.1748L10.31 9.36184Z" fill="white"/>
</svg>
